<svg width="42" height="42" viewBox="0 0 42 42" fill="none" xmlns="http://www.w3.org/2000/svg">
<path d="M0.833252 0.833374L1.46346 2.56645L0.833252 4.3783V6.19014L3.35408 10.444L0.833252 14.698V17.2188L3.35408 21L0.833252 24.7813V27.3021L3.35408 31.556L0.833252 35.8099V41.1667L2.56632 40.5365L4.37817 41.1667H6.19002L10.4439 38.6459L14.6978 41.1667H17.2187L20.9999 38.6459L24.7812 41.1667H27.302L31.5559 38.6459L35.8098 41.1667H41.1666L40.5364 39.4336L41.1666 37.6218V35.8099L38.6457 31.556L41.1666 27.3021V24.7813L38.6457 21L41.1666 17.2188V14.698L38.6457 10.444L41.1666 6.19014V0.833374L39.4335 1.46358L37.6217 0.833374H35.8098L31.5559 3.35421L27.302 0.833374H24.7812L20.9999 3.35421L17.2187 0.833374H14.6978L10.4439 3.35421L6.19002 0.833374H0.833252Z" fill="#EEEEEE"/>
<path d="M27.302 0.833374V9.34119L35.8098 0.833374H27.302ZM41.1666 6.19014L32.6588 14.698H41.1666V6.19014ZM0.833252 14.698H9.34106L0.833252 6.19014V14.698ZM6.19002 0.833374L14.6978 9.34119V0.833374H6.19002ZM14.6978 41.1667V32.6589L6.19002 41.1667H14.6978ZM0.833252 35.8099L9.34106 27.3021H0.833252V35.8099ZM41.1666 27.3021H32.6588L41.1666 35.8099V27.3021ZM35.8098 41.1667L27.302 32.6589V41.1667H35.8098Z" fill="#0052B4"/>
<path d="M0.833252 0.833374V4.3783L11.1529 14.698H14.6978L0.833252 0.833374ZM17.2187 0.833374V17.2188H0.833252V24.7813H17.2187V41.1667H24.7812V24.7813H41.1666V17.2188H24.7812V0.833374H17.2187ZM37.6217 0.833374L27.302 11.153V14.698L41.1666 0.833374H37.6217ZM14.6978 27.3021L0.833252 41.1667H4.37817L14.6978 30.847V27.3021ZM27.302 27.3021L41.1666 41.1667V37.6218L30.8469 27.3021H27.302Z" fill="#D80027"/>
</svg>
